<mxfile host="app.diagrams.net" modified="2021-02-13T10:06:47.938Z" agent="5.0 (Macintosh; Intel Mac OS X 10_15_6) AppleWebKit/537.36 (KHTML, like Gecko) Chrome/88.0.4324.96 Safari/537.36" etag="b2TN31tq-Jzueus2U7MT" version="14.2.9" type="github">
  <diagram id="aE_Aujv4SpDu7suMMUOv" name="第 1 页">
    <mxGraphModel dx="916" dy="591" grid="1" gridSize="10" guides="1" tooltips="1" connect="1" arrows="1" fold="1" page="1" pageScale="1" pageWidth="827" pageHeight="1169" math="0" shadow="0">
      <root>
        <mxCell id="0" />
        <mxCell id="1" parent="0" />
        <mxCell id="SYQG03bMd1OEDl9VJ-Bb-1" value="MTR1" style="rounded=0;whiteSpace=wrap;html=1;" vertex="1" parent="1">
          <mxGeometry x="411" y="80" width="80" height="40" as="geometry" />
        </mxCell>
        <mxCell id="SYQG03bMd1OEDl9VJ-Bb-2" value="MTR2" style="rounded=0;whiteSpace=wrap;html=1;" vertex="1" parent="1">
          <mxGeometry x="411" y="120" width="80" height="40" as="geometry" />
        </mxCell>
        <mxCell id="SYQG03bMd1OEDl9VJ-Bb-3" value="MTR3" style="rounded=0;whiteSpace=wrap;html=1;" vertex="1" parent="1">
          <mxGeometry x="411" y="160" width="80" height="40" as="geometry" />
        </mxCell>
        <mxCell id="SYQG03bMd1OEDl9VJ-Bb-81" value="" style="edgeStyle=orthogonalEdgeStyle;rounded=0;orthogonalLoop=1;jettySize=auto;html=1;entryX=0.5;entryY=0;entryDx=0;entryDy=0;" edge="1" parent="1" source="SYQG03bMd1OEDl9VJ-Bb-4" target="SYQG03bMd1OEDl9VJ-Bb-53">
          <mxGeometry relative="1" as="geometry">
            <Array as="points">
              <mxPoint x="451" y="280" />
              <mxPoint x="901" y="280" />
            </Array>
          </mxGeometry>
        </mxCell>
        <mxCell id="SYQG03bMd1OEDl9VJ-Bb-83" value="Appand Mtr" style="edgeLabel;html=1;align=center;verticalAlign=middle;resizable=0;points=[];" vertex="1" connectable="0" parent="SYQG03bMd1OEDl9VJ-Bb-81">
          <mxGeometry x="0.0755" y="4" relative="1" as="geometry">
            <mxPoint as="offset" />
          </mxGeometry>
        </mxCell>
        <mxCell id="SYQG03bMd1OEDl9VJ-Bb-4" value="MTR4" style="rounded=0;whiteSpace=wrap;html=1;" vertex="1" parent="1">
          <mxGeometry x="411" y="200" width="80" height="40" as="geometry" />
        </mxCell>
        <mxCell id="SYQG03bMd1OEDl9VJ-Bb-5" value="Redo1" style="rounded=0;whiteSpace=wrap;html=1;" vertex="1" parent="1">
          <mxGeometry x="531" y="70" width="90" height="20" as="geometry" />
        </mxCell>
        <mxCell id="SYQG03bMd1OEDl9VJ-Bb-6" value="Redo2" style="rounded=0;whiteSpace=wrap;html=1;" vertex="1" parent="1">
          <mxGeometry x="531" y="90" width="90" height="20" as="geometry" />
        </mxCell>
        <mxCell id="SYQG03bMd1OEDl9VJ-Bb-7" value="Redo3" style="rounded=0;whiteSpace=wrap;html=1;" vertex="1" parent="1">
          <mxGeometry x="531" y="110" width="90" height="20" as="geometry" />
        </mxCell>
        <mxCell id="SYQG03bMd1OEDl9VJ-Bb-8" value="" style="strokeWidth=2;html=1;shape=mxgraph.flowchart.annotation_2;align=left;labelPosition=right;pointerEvents=1;" vertex="1" parent="1">
          <mxGeometry x="351" y="200" width="50" height="40" as="geometry" />
        </mxCell>
        <mxCell id="SYQG03bMd1OEDl9VJ-Bb-9" value="" style="strokeWidth=2;html=1;shape=mxgraph.flowchart.annotation_2;align=left;labelPosition=right;pointerEvents=1;" vertex="1" parent="1">
          <mxGeometry x="351" y="120" width="50" height="80" as="geometry" />
        </mxCell>
        <mxCell id="SYQG03bMd1OEDl9VJ-Bb-10" value="" style="strokeWidth=2;html=1;shape=mxgraph.flowchart.annotation_2;align=left;labelPosition=right;pointerEvents=1;" vertex="1" parent="1">
          <mxGeometry x="351" y="80" width="50" height="40" as="geometry" />
        </mxCell>
        <mxCell id="SYQG03bMd1OEDl9VJ-Bb-11" value="Stat1" style="text;html=1;strokeColor=none;fillColor=none;align=center;verticalAlign=middle;whiteSpace=wrap;rounded=0;" vertex="1" parent="1">
          <mxGeometry x="301" y="90" width="40" height="20" as="geometry" />
        </mxCell>
        <mxCell id="SYQG03bMd1OEDl9VJ-Bb-12" value="Stat2" style="text;html=1;strokeColor=none;fillColor=none;align=center;verticalAlign=middle;whiteSpace=wrap;rounded=0;" vertex="1" parent="1">
          <mxGeometry x="301" y="150" width="40" height="20" as="geometry" />
        </mxCell>
        <mxCell id="SYQG03bMd1OEDl9VJ-Bb-13" value="Stat3" style="text;html=1;strokeColor=none;fillColor=none;align=center;verticalAlign=middle;whiteSpace=wrap;rounded=0;" vertex="1" parent="1">
          <mxGeometry x="301" y="210" width="40" height="20" as="geometry" />
        </mxCell>
        <mxCell id="SYQG03bMd1OEDl9VJ-Bb-14" value="" style="strokeWidth=2;html=1;shape=mxgraph.flowchart.annotation_2;align=left;labelPosition=right;pointerEvents=1;" vertex="1" parent="1">
          <mxGeometry x="251" y="80" width="50" height="160" as="geometry" />
        </mxCell>
        <mxCell id="SYQG03bMd1OEDl9VJ-Bb-15" value="TX1" style="text;html=1;strokeColor=none;fillColor=none;align=center;verticalAlign=middle;whiteSpace=wrap;rounded=0;" vertex="1" parent="1">
          <mxGeometry x="201" y="150" width="40" height="20" as="geometry" />
        </mxCell>
        <mxCell id="SYQG03bMd1OEDl9VJ-Bb-16" value="" style="strokeWidth=2;html=1;shape=mxgraph.flowchart.annotation_2;align=left;labelPosition=right;pointerEvents=1;" vertex="1" parent="1">
          <mxGeometry x="491" y="70" width="40" height="60" as="geometry" />
        </mxCell>
        <mxCell id="SYQG03bMd1OEDl9VJ-Bb-17" value="Thread1" style="shape=umlFrame;whiteSpace=wrap;html=1;width=120;height=30;boundedLbl=1;verticalAlign=middle;align=left;spacingLeft=5;" vertex="1" parent="1">
          <mxGeometry x="201" y="40" width="440" height="220" as="geometry" />
        </mxCell>
        <mxCell id="SYQG03bMd1OEDl9VJ-Bb-19" value="MTR1" style="rounded=0;whiteSpace=wrap;html=1;" vertex="1" parent="1">
          <mxGeometry x="931" y="80" width="80" height="40" as="geometry" />
        </mxCell>
        <mxCell id="SYQG03bMd1OEDl9VJ-Bb-20" value="MTR2" style="rounded=0;whiteSpace=wrap;html=1;" vertex="1" parent="1">
          <mxGeometry x="931" y="120" width="80" height="40" as="geometry" />
        </mxCell>
        <mxCell id="SYQG03bMd1OEDl9VJ-Bb-21" value="MTR3" style="rounded=0;whiteSpace=wrap;html=1;" vertex="1" parent="1">
          <mxGeometry x="931" y="160" width="80" height="40" as="geometry" />
        </mxCell>
        <mxCell id="SYQG03bMd1OEDl9VJ-Bb-82" value="" style="edgeStyle=orthogonalEdgeStyle;rounded=0;orthogonalLoop=1;jettySize=auto;html=1;entryX=0.5;entryY=0;entryDx=0;entryDy=0;" edge="1" parent="1" source="SYQG03bMd1OEDl9VJ-Bb-22" target="SYQG03bMd1OEDl9VJ-Bb-53">
          <mxGeometry relative="1" as="geometry">
            <Array as="points">
              <mxPoint x="971" y="280" />
              <mxPoint x="901" y="280" />
            </Array>
          </mxGeometry>
        </mxCell>
        <mxCell id="SYQG03bMd1OEDl9VJ-Bb-22" value="MTR4" style="rounded=0;whiteSpace=wrap;html=1;" vertex="1" parent="1">
          <mxGeometry x="931" y="200" width="80" height="40" as="geometry" />
        </mxCell>
        <mxCell id="SYQG03bMd1OEDl9VJ-Bb-23" value="Redo1" style="rounded=0;whiteSpace=wrap;html=1;" vertex="1" parent="1">
          <mxGeometry x="1051" y="70" width="90" height="20" as="geometry" />
        </mxCell>
        <mxCell id="SYQG03bMd1OEDl9VJ-Bb-24" value="Redo2" style="rounded=0;whiteSpace=wrap;html=1;" vertex="1" parent="1">
          <mxGeometry x="1051" y="90" width="90" height="20" as="geometry" />
        </mxCell>
        <mxCell id="SYQG03bMd1OEDl9VJ-Bb-25" value="Redo3" style="rounded=0;whiteSpace=wrap;html=1;" vertex="1" parent="1">
          <mxGeometry x="1051" y="110" width="90" height="20" as="geometry" />
        </mxCell>
        <mxCell id="SYQG03bMd1OEDl9VJ-Bb-26" value="" style="strokeWidth=2;html=1;shape=mxgraph.flowchart.annotation_2;align=left;labelPosition=right;pointerEvents=1;" vertex="1" parent="1">
          <mxGeometry x="871" y="200" width="50" height="40" as="geometry" />
        </mxCell>
        <mxCell id="SYQG03bMd1OEDl9VJ-Bb-27" value="" style="strokeWidth=2;html=1;shape=mxgraph.flowchart.annotation_2;align=left;labelPosition=right;pointerEvents=1;" vertex="1" parent="1">
          <mxGeometry x="871" y="120" width="50" height="80" as="geometry" />
        </mxCell>
        <mxCell id="SYQG03bMd1OEDl9VJ-Bb-28" value="" style="strokeWidth=2;html=1;shape=mxgraph.flowchart.annotation_2;align=left;labelPosition=right;pointerEvents=1;" vertex="1" parent="1">
          <mxGeometry x="871" y="80" width="50" height="40" as="geometry" />
        </mxCell>
        <mxCell id="SYQG03bMd1OEDl9VJ-Bb-29" value="Stat1" style="text;html=1;strokeColor=none;fillColor=none;align=center;verticalAlign=middle;whiteSpace=wrap;rounded=0;" vertex="1" parent="1">
          <mxGeometry x="821" y="90" width="40" height="20" as="geometry" />
        </mxCell>
        <mxCell id="SYQG03bMd1OEDl9VJ-Bb-30" value="Stat2" style="text;html=1;strokeColor=none;fillColor=none;align=center;verticalAlign=middle;whiteSpace=wrap;rounded=0;" vertex="1" parent="1">
          <mxGeometry x="821" y="150" width="40" height="20" as="geometry" />
        </mxCell>
        <mxCell id="SYQG03bMd1OEDl9VJ-Bb-31" value="Stat3" style="text;html=1;strokeColor=none;fillColor=none;align=center;verticalAlign=middle;whiteSpace=wrap;rounded=0;" vertex="1" parent="1">
          <mxGeometry x="821" y="210" width="40" height="20" as="geometry" />
        </mxCell>
        <mxCell id="SYQG03bMd1OEDl9VJ-Bb-32" value="" style="strokeWidth=2;html=1;shape=mxgraph.flowchart.annotation_2;align=left;labelPosition=right;pointerEvents=1;" vertex="1" parent="1">
          <mxGeometry x="771" y="80" width="50" height="160" as="geometry" />
        </mxCell>
        <mxCell id="SYQG03bMd1OEDl9VJ-Bb-33" value="TX2" style="text;html=1;strokeColor=none;fillColor=none;align=center;verticalAlign=middle;whiteSpace=wrap;rounded=0;" vertex="1" parent="1">
          <mxGeometry x="721" y="150" width="40" height="20" as="geometry" />
        </mxCell>
        <mxCell id="SYQG03bMd1OEDl9VJ-Bb-34" value="" style="strokeWidth=2;html=1;shape=mxgraph.flowchart.annotation_2;align=left;labelPosition=right;pointerEvents=1;" vertex="1" parent="1">
          <mxGeometry x="1011" y="70" width="40" height="60" as="geometry" />
        </mxCell>
        <mxCell id="SYQG03bMd1OEDl9VJ-Bb-35" value="Thread2" style="shape=umlFrame;whiteSpace=wrap;html=1;width=120;height=30;boundedLbl=1;verticalAlign=middle;align=left;spacingLeft=5;" vertex="1" parent="1">
          <mxGeometry x="721" y="40" width="440" height="220" as="geometry" />
        </mxCell>
        <mxCell id="SYQG03bMd1OEDl9VJ-Bb-36" value="Block" style="rounded=0;whiteSpace=wrap;html=1;" vertex="1" parent="1">
          <mxGeometry x="361" y="320" width="40" height="40" as="geometry" />
        </mxCell>
        <mxCell id="SYQG03bMd1OEDl9VJ-Bb-37" value="" style="rounded=0;whiteSpace=wrap;html=1;" vertex="1" parent="1">
          <mxGeometry x="401" y="320" width="40" height="40" as="geometry" />
        </mxCell>
        <mxCell id="SYQG03bMd1OEDl9VJ-Bb-38" value="" style="rounded=0;whiteSpace=wrap;html=1;" vertex="1" parent="1">
          <mxGeometry x="441" y="320" width="40" height="40" as="geometry" />
        </mxCell>
        <mxCell id="SYQG03bMd1OEDl9VJ-Bb-39" value="" style="rounded=0;whiteSpace=wrap;html=1;" vertex="1" parent="1">
          <mxGeometry x="481" y="320" width="40" height="40" as="geometry" />
        </mxCell>
        <mxCell id="SYQG03bMd1OEDl9VJ-Bb-40" value="" style="rounded=0;whiteSpace=wrap;html=1;" vertex="1" parent="1">
          <mxGeometry x="521" y="320" width="40" height="40" as="geometry" />
        </mxCell>
        <mxCell id="SYQG03bMd1OEDl9VJ-Bb-41" value="" style="rounded=0;whiteSpace=wrap;html=1;" vertex="1" parent="1">
          <mxGeometry x="561" y="320" width="40" height="40" as="geometry" />
        </mxCell>
        <mxCell id="SYQG03bMd1OEDl9VJ-Bb-42" value="" style="rounded=0;whiteSpace=wrap;html=1;" vertex="1" parent="1">
          <mxGeometry x="601" y="320" width="40" height="40" as="geometry" />
        </mxCell>
        <mxCell id="SYQG03bMd1OEDl9VJ-Bb-43" value="" style="rounded=0;whiteSpace=wrap;html=1;" vertex="1" parent="1">
          <mxGeometry x="641" y="320" width="40" height="40" as="geometry" />
        </mxCell>
        <mxCell id="SYQG03bMd1OEDl9VJ-Bb-44" value="" style="rounded=0;whiteSpace=wrap;html=1;" vertex="1" parent="1">
          <mxGeometry x="681" y="320" width="40" height="40" as="geometry" />
        </mxCell>
        <mxCell id="SYQG03bMd1OEDl9VJ-Bb-45" value="" style="rounded=0;whiteSpace=wrap;html=1;" vertex="1" parent="1">
          <mxGeometry x="721" y="320" width="40" height="40" as="geometry" />
        </mxCell>
        <mxCell id="SYQG03bMd1OEDl9VJ-Bb-46" value="Header" style="rounded=0;whiteSpace=wrap;html=1;" vertex="1" parent="1">
          <mxGeometry x="211" y="480" width="40" height="40" as="geometry" />
        </mxCell>
        <mxCell id="SYQG03bMd1OEDl9VJ-Bb-47" value="" style="rounded=0;whiteSpace=wrap;html=1;" vertex="1" parent="1">
          <mxGeometry x="761" y="320" width="40" height="40" as="geometry" />
        </mxCell>
        <mxCell id="SYQG03bMd1OEDl9VJ-Bb-50" value="" style="rounded=0;whiteSpace=wrap;html=1;" vertex="1" parent="1">
          <mxGeometry x="961" y="320" width="40" height="40" as="geometry" />
        </mxCell>
        <mxCell id="SYQG03bMd1OEDl9VJ-Bb-51" value="" style="rounded=0;whiteSpace=wrap;html=1;" vertex="1" parent="1">
          <mxGeometry x="801" y="320" width="40" height="40" as="geometry" />
        </mxCell>
        <mxCell id="SYQG03bMd1OEDl9VJ-Bb-52" value="" style="rounded=0;whiteSpace=wrap;html=1;" vertex="1" parent="1">
          <mxGeometry x="841" y="320" width="40" height="40" as="geometry" />
        </mxCell>
        <mxCell id="SYQG03bMd1OEDl9VJ-Bb-53" value="" style="rounded=0;whiteSpace=wrap;html=1;" vertex="1" parent="1">
          <mxGeometry x="881" y="320" width="40" height="40" as="geometry" />
        </mxCell>
        <mxCell id="SYQG03bMd1OEDl9VJ-Bb-54" value="" style="rounded=0;whiteSpace=wrap;html=1;" vertex="1" parent="1">
          <mxGeometry x="921" y="320" width="40" height="40" as="geometry" />
        </mxCell>
        <mxCell id="SYQG03bMd1OEDl9VJ-Bb-55" value="CKPT1" style="rounded=0;whiteSpace=wrap;html=1;" vertex="1" parent="1">
          <mxGeometry x="251" y="480" width="40" height="40" as="geometry" />
        </mxCell>
        <mxCell id="SYQG03bMd1OEDl9VJ-Bb-56" value="" style="rounded=0;whiteSpace=wrap;html=1;" vertex="1" parent="1">
          <mxGeometry x="291" y="480" width="40" height="40" as="geometry" />
        </mxCell>
        <mxCell id="SYQG03bMd1OEDl9VJ-Bb-57" value="CKPT2" style="rounded=0;whiteSpace=wrap;html=1;" vertex="1" parent="1">
          <mxGeometry x="331" y="480" width="40" height="40" as="geometry" />
        </mxCell>
        <mxCell id="SYQG03bMd1OEDl9VJ-Bb-58" value="Block" style="rounded=0;whiteSpace=wrap;html=1;" vertex="1" parent="1">
          <mxGeometry x="371" y="480" width="40" height="40" as="geometry" />
        </mxCell>
        <mxCell id="SYQG03bMd1OEDl9VJ-Bb-59" value="" style="rounded=0;whiteSpace=wrap;html=1;" vertex="1" parent="1">
          <mxGeometry x="411" y="480" width="40" height="40" as="geometry" />
        </mxCell>
        <mxCell id="SYQG03bMd1OEDl9VJ-Bb-60" value="" style="rounded=0;whiteSpace=wrap;html=1;" vertex="1" parent="1">
          <mxGeometry x="451" y="480" width="40" height="40" as="geometry" />
        </mxCell>
        <mxCell id="SYQG03bMd1OEDl9VJ-Bb-61" value="" style="rounded=0;whiteSpace=wrap;html=1;" vertex="1" parent="1">
          <mxGeometry x="491" y="480" width="40" height="40" as="geometry" />
        </mxCell>
        <mxCell id="SYQG03bMd1OEDl9VJ-Bb-62" value="" style="rounded=0;whiteSpace=wrap;html=1;" vertex="1" parent="1">
          <mxGeometry x="531" y="480" width="40" height="40" as="geometry" />
        </mxCell>
        <mxCell id="SYQG03bMd1OEDl9VJ-Bb-63" value="" style="rounded=0;whiteSpace=wrap;html=1;" vertex="1" parent="1">
          <mxGeometry x="571" y="480" width="40" height="40" as="geometry" />
        </mxCell>
        <mxCell id="SYQG03bMd1OEDl9VJ-Bb-64" value="" style="rounded=0;whiteSpace=wrap;html=1;" vertex="1" parent="1">
          <mxGeometry x="611" y="480" width="40" height="40" as="geometry" />
        </mxCell>
        <mxCell id="SYQG03bMd1OEDl9VJ-Bb-65" value="" style="rounded=0;whiteSpace=wrap;html=1;" vertex="1" parent="1">
          <mxGeometry x="651" y="480" width="40" height="40" as="geometry" />
        </mxCell>
        <mxCell id="SYQG03bMd1OEDl9VJ-Bb-66" value="" style="rounded=0;whiteSpace=wrap;html=1;" vertex="1" parent="1">
          <mxGeometry x="531" y="560" width="40" height="40" as="geometry" />
        </mxCell>
        <mxCell id="SYQG03bMd1OEDl9VJ-Bb-67" value="" style="rounded=0;whiteSpace=wrap;html=1;" vertex="1" parent="1">
          <mxGeometry x="571" y="560" width="40" height="40" as="geometry" />
        </mxCell>
        <mxCell id="SYQG03bMd1OEDl9VJ-Bb-68" value="" style="rounded=0;whiteSpace=wrap;html=1;" vertex="1" parent="1">
          <mxGeometry x="611" y="560" width="40" height="40" as="geometry" />
        </mxCell>
        <mxCell id="SYQG03bMd1OEDl9VJ-Bb-69" value="" style="rounded=0;whiteSpace=wrap;html=1;" vertex="1" parent="1">
          <mxGeometry x="651" y="560" width="40" height="40" as="geometry" />
        </mxCell>
        <mxCell id="SYQG03bMd1OEDl9VJ-Bb-70" value="Block" style="rounded=0;whiteSpace=wrap;html=1;" vertex="1" parent="1">
          <mxGeometry x="691" y="560" width="40" height="40" as="geometry" />
        </mxCell>
        <mxCell id="SYQG03bMd1OEDl9VJ-Bb-71" value="" style="rounded=0;whiteSpace=wrap;html=1;" vertex="1" parent="1">
          <mxGeometry x="731" y="560" width="40" height="40" as="geometry" />
        </mxCell>
        <mxCell id="SYQG03bMd1OEDl9VJ-Bb-72" value="" style="rounded=0;whiteSpace=wrap;html=1;" vertex="1" parent="1">
          <mxGeometry x="771" y="560" width="40" height="40" as="geometry" />
        </mxCell>
        <mxCell id="SYQG03bMd1OEDl9VJ-Bb-73" value="" style="rounded=0;whiteSpace=wrap;html=1;" vertex="1" parent="1">
          <mxGeometry x="811" y="560" width="40" height="40" as="geometry" />
        </mxCell>
        <mxCell id="SYQG03bMd1OEDl9VJ-Bb-74" value="" style="rounded=0;whiteSpace=wrap;html=1;" vertex="1" parent="1">
          <mxGeometry x="851" y="560" width="40" height="40" as="geometry" />
        </mxCell>
        <mxCell id="SYQG03bMd1OEDl9VJ-Bb-75" value="" style="rounded=0;whiteSpace=wrap;html=1;" vertex="1" parent="1">
          <mxGeometry x="891" y="560" width="40" height="40" as="geometry" />
        </mxCell>
        <mxCell id="SYQG03bMd1OEDl9VJ-Bb-76" value="" style="rounded=0;whiteSpace=wrap;html=1;" vertex="1" parent="1">
          <mxGeometry x="931" y="560" width="40" height="40" as="geometry" />
        </mxCell>
        <mxCell id="SYQG03bMd1OEDl9VJ-Bb-77" value="" style="rounded=0;whiteSpace=wrap;html=1;" vertex="1" parent="1">
          <mxGeometry x="971" y="560" width="40" height="40" as="geometry" />
        </mxCell>
        <mxCell id="SYQG03bMd1OEDl9VJ-Bb-78" value="ib_logfile0" style="text;html=1;strokeColor=none;fillColor=none;align=center;verticalAlign=middle;whiteSpace=wrap;rounded=0;" vertex="1" parent="1">
          <mxGeometry x="731" y="490" width="40" height="20" as="geometry" />
        </mxCell>
        <mxCell id="SYQG03bMd1OEDl9VJ-Bb-79" value="ib_logfile1" style="text;html=1;strokeColor=none;fillColor=none;align=center;verticalAlign=middle;whiteSpace=wrap;rounded=0;" vertex="1" parent="1">
          <mxGeometry x="451" y="570" width="40" height="20" as="geometry" />
        </mxCell>
        <mxCell id="SYQG03bMd1OEDl9VJ-Bb-84" value="" style="endArrow=none;html=1;" edge="1" parent="1">
          <mxGeometry width="50" height="50" relative="1" as="geometry">
            <mxPoint x="901" y="380" as="sourcePoint" />
            <mxPoint x="901" y="310" as="targetPoint" />
          </mxGeometry>
        </mxCell>
        <mxCell id="SYQG03bMd1OEDl9VJ-Bb-86" value="" style="endArrow=none;html=1;strokeColor=#1919FF;strokeWidth=3;" edge="1" parent="1">
          <mxGeometry width="50" height="50" relative="1" as="geometry">
            <mxPoint x="41" y="420" as="sourcePoint" />
            <mxPoint x="1241" y="420" as="targetPoint" />
          </mxGeometry>
        </mxCell>
        <mxCell id="SYQG03bMd1OEDl9VJ-Bb-88" value="" style="endArrow=none;html=1;strokeColor=#1919FF;strokeWidth=3;" edge="1" parent="1">
          <mxGeometry width="50" height="50" relative="1" as="geometry">
            <mxPoint x="41" y="300" as="sourcePoint" />
            <mxPoint x="1241" y="300" as="targetPoint" />
          </mxGeometry>
        </mxCell>
        <mxCell id="SYQG03bMd1OEDl9VJ-Bb-91" value="&lt;span&gt;用户&lt;br&gt;线程&lt;/span&gt;" style="rounded=0;whiteSpace=wrap;html=1;" vertex="1" parent="1">
          <mxGeometry x="1201" y="40" width="39" height="240" as="geometry" />
        </mxCell>
        <mxCell id="SYQG03bMd1OEDl9VJ-Bb-92" value="内存" style="rounded=0;whiteSpace=wrap;html=1;" vertex="1" parent="1">
          <mxGeometry x="1200" y="320" width="40" height="80" as="geometry" />
        </mxCell>
        <mxCell id="SYQG03bMd1OEDl9VJ-Bb-95" value="磁盘" style="rounded=0;whiteSpace=wrap;html=1;" vertex="1" parent="1">
          <mxGeometry x="1200" y="440" width="40" height="160" as="geometry" />
        </mxCell>
        <mxCell id="SYQG03bMd1OEDl9VJ-Bb-96" value="&lt;font color=&quot;#ff2129&quot;&gt;lsn&lt;/font&gt;" style="text;html=1;strokeColor=none;fillColor=none;align=center;verticalAlign=middle;whiteSpace=wrap;rounded=0;" vertex="1" parent="1">
          <mxGeometry x="881" y="380" width="40" height="20" as="geometry" />
        </mxCell>
        <mxCell id="SYQG03bMd1OEDl9VJ-Bb-97" value="" style="endArrow=none;html=1;strokeWidth=1;" edge="1" parent="1" source="SYQG03bMd1OEDl9VJ-Bb-98">
          <mxGeometry width="50" height="50" relative="1" as="geometry">
            <mxPoint x="641" y="400" as="sourcePoint" />
            <mxPoint x="641" y="310" as="targetPoint" />
          </mxGeometry>
        </mxCell>
        <mxCell id="SYQG03bMd1OEDl9VJ-Bb-98" value="&lt;font color=&quot;#ff2129&quot;&gt;flished_lsn&lt;/font&gt;" style="text;html=1;strokeColor=none;fillColor=none;align=center;verticalAlign=middle;whiteSpace=wrap;rounded=0;" vertex="1" parent="1">
          <mxGeometry x="621" y="390" width="40" height="20" as="geometry" />
        </mxCell>
        <mxCell id="SYQG03bMd1OEDl9VJ-Bb-106" value="" style="edgeStyle=orthogonalEdgeStyle;rounded=0;orthogonalLoop=1;jettySize=auto;html=1;strokeColor=#000000;strokeWidth=1;" edge="1" parent="1" source="SYQG03bMd1OEDl9VJ-Bb-101" target="SYQG03bMd1OEDl9VJ-Bb-102">
          <mxGeometry relative="1" as="geometry" />
        </mxCell>
        <mxCell id="SYQG03bMd1OEDl9VJ-Bb-101" value="Page" style="rounded=0;whiteSpace=wrap;html=1;" vertex="1" parent="1">
          <mxGeometry x="121" y="320" width="40" height="40" as="geometry" />
        </mxCell>
        <mxCell id="SYQG03bMd1OEDl9VJ-Bb-107" value="" style="edgeStyle=orthogonalEdgeStyle;rounded=0;orthogonalLoop=1;jettySize=auto;html=1;strokeColor=#000000;strokeWidth=1;" edge="1" parent="1" source="SYQG03bMd1OEDl9VJ-Bb-102" target="SYQG03bMd1OEDl9VJ-Bb-103">
          <mxGeometry relative="1" as="geometry" />
        </mxCell>
        <mxCell id="SYQG03bMd1OEDl9VJ-Bb-102" value="Page" style="rounded=0;whiteSpace=wrap;html=1;" vertex="1" parent="1">
          <mxGeometry x="201" y="320" width="40" height="40" as="geometry" />
        </mxCell>
        <mxCell id="SYQG03bMd1OEDl9VJ-Bb-103" value="Page" style="rounded=0;whiteSpace=wrap;html=1;" vertex="1" parent="1">
          <mxGeometry x="281" y="320" width="40" height="40" as="geometry" />
        </mxCell>
        <mxCell id="SYQG03bMd1OEDl9VJ-Bb-110" value="FlushLIst" style="text;html=1;strokeColor=none;fillColor=none;align=center;verticalAlign=middle;whiteSpace=wrap;rounded=0;" vertex="1" parent="1">
          <mxGeometry x="60" y="320" width="40" height="40" as="geometry" />
        </mxCell>
        <mxCell id="SYQG03bMd1OEDl9VJ-Bb-111" value="" style="endArrow=classic;html=1;strokeColor=#000000;strokeWidth=1;exitX=0.5;exitY=1;exitDx=0;exitDy=0;entryX=0.5;entryY=1;entryDx=0;entryDy=0;" edge="1" parent="1" source="SYQG03bMd1OEDl9VJ-Bb-103" target="SYQG03bMd1OEDl9VJ-Bb-39">
          <mxGeometry width="50" height="50" relative="1" as="geometry">
            <mxPoint x="-9" y="420" as="sourcePoint" />
            <mxPoint x="301" y="400" as="targetPoint" />
            <Array as="points">
              <mxPoint x="301" y="380" />
              <mxPoint x="501" y="380" />
            </Array>
          </mxGeometry>
        </mxCell>
        <mxCell id="SYQG03bMd1OEDl9VJ-Bb-112" value="" style="endArrow=classic;html=1;strokeColor=#000000;strokeWidth=1;exitX=0.5;exitY=1;exitDx=0;exitDy=0;entryX=0.5;entryY=1;entryDx=0;entryDy=0;" edge="1" parent="1" source="SYQG03bMd1OEDl9VJ-Bb-102" target="SYQG03bMd1OEDl9VJ-Bb-40">
          <mxGeometry width="50" height="50" relative="1" as="geometry">
            <mxPoint x="311" y="370" as="sourcePoint" />
            <mxPoint x="511" y="370" as="targetPoint" />
            <Array as="points">
              <mxPoint x="221" y="390" />
              <mxPoint x="541" y="390" />
            </Array>
          </mxGeometry>
        </mxCell>
        <mxCell id="SYQG03bMd1OEDl9VJ-Bb-113" value="" style="endArrow=classic;html=1;strokeColor=#000000;strokeWidth=1;exitX=0.5;exitY=1;exitDx=0;exitDy=0;entryX=0.5;entryY=1;entryDx=0;entryDy=0;" edge="1" parent="1" source="SYQG03bMd1OEDl9VJ-Bb-101" target="SYQG03bMd1OEDl9VJ-Bb-42">
          <mxGeometry width="50" height="50" relative="1" as="geometry">
            <mxPoint x="231" y="370" as="sourcePoint" />
            <mxPoint x="551" y="370" as="targetPoint" />
            <Array as="points">
              <mxPoint x="141" y="400" />
              <mxPoint x="621" y="400" />
            </Array>
          </mxGeometry>
        </mxCell>
        <mxCell id="SYQG03bMd1OEDl9VJ-Bb-114" value="" style="endArrow=classic;html=1;strokeColor=#000000;strokeWidth=1;exitX=0.5;exitY=0;exitDx=0;exitDy=0;" edge="1" parent="1" source="SYQG03bMd1OEDl9VJ-Bb-55">
          <mxGeometry width="50" height="50" relative="1" as="geometry">
            <mxPoint x="141" y="450" as="sourcePoint" />
            <mxPoint x="501" y="360" as="targetPoint" />
          </mxGeometry>
        </mxCell>
        <mxCell id="SYQG03bMd1OEDl9VJ-Bb-117" value="" style="endArrow=none;html=1;strokeColor=#000000;strokeWidth=1;" edge="1" parent="1">
          <mxGeometry width="50" height="50" relative="1" as="geometry">
            <mxPoint x="501" y="440" as="sourcePoint" />
            <mxPoint x="501" y="310" as="targetPoint" />
          </mxGeometry>
        </mxCell>
        <mxCell id="SYQG03bMd1OEDl9VJ-Bb-120" value="&lt;font color=&quot;#ff2129&quot;&gt;ckpt_lsn&lt;/font&gt;" style="text;html=1;strokeColor=none;fillColor=none;align=center;verticalAlign=middle;whiteSpace=wrap;rounded=0;" vertex="1" parent="1">
          <mxGeometry x="481" y="440" width="40" height="20" as="geometry" />
        </mxCell>
        <mxCell id="SYQG03bMd1OEDl9VJ-Bb-121" value="RedoLogBuffer" style="text;html=1;strokeColor=none;fillColor=none;align=center;verticalAlign=middle;whiteSpace=wrap;rounded=0;" vertex="1" parent="1">
          <mxGeometry x="1040" y="320" width="40" height="40" as="geometry" />
        </mxCell>
      </root>
    </mxGraphModel>
  </diagram>
</mxfile>
